HIERARCHY
ROOT Hips
{
	OFFSET 59.481899 -3.890595 94.027802
	CHANNELS 6 Xposition Yposition Zposition Xrotation Yrotation Zrotation
	JOINT spine
	{
		OFFSET 0.000000 -0.448574 7.800591
		CHANNELS 3 Xrotation Yrotation Zrotation
		JOINT spine1
		{
			OFFSET 0.000000 -0.000001 10.136398
			CHANNELS 3 Xrotation Yrotation Zrotation
			JOINT spine2
			{
				OFFSET 0.000000 -0.000002 9.712509
				CHANNELS 3 Xrotation Yrotation Zrotation
				JOINT Neck
				{
					OFFSET 0.000000 -1.188874 24.936104
					CHANNELS 3 Xrotation Yrotation Zrotation
					JOINT Head
					{
						OFFSET 0.000000 -0.000001 7.533844
						CHANNELS 3 Xrotation Yrotation Zrotation
						End Site
						{
							OFFSET 0.000000 6.014017 18.236099
						}
					}
				}
				JOINT RightShoulder
				{
					OFFSET -4.089649 0.569456 10.488808
					CHANNELS 3 Xrotation Yrotation Zrotation
					JOINT RightArm
					{
						OFFSET 0.000000 -0.000002 13.757004
						CHANNELS 3 Xrotation Yrotation Zrotation
						JOINT RightArmRoll
						{
							OFFSET 0.000000 -0.000001 6.944778
							CHANNELS 3 Xrotation Yrotation Zrotation
							JOINT RightForeArm
							{
								OFFSET 0.000000 -0.000003 20.227692
								CHANNELS 3 Xrotation Yrotation Zrotation
								JOINT RightForeArmRoll
								{
									OFFSET 0.000000 -0.000001 7.793121
									CHANNELS 3 Xrotation Yrotation Zrotation
									JOINT RightHand
									{
										OFFSET 0.000000 -0.000002 15.639099
										CHANNELS 3 Xrotation Yrotation Zrotation
										End Site
										{
											OFFSET 0.000000 0.000000 0.100006
										}
									}
								}
							}
						}
					}
				}
				JOINT LeftShoulder
				{
					OFFSET 4.089649 0.569456 10.488808
					CHANNELS 3 Xrotation Yrotation Zrotation
					JOINT LeftArm
					{
						OFFSET 0.000000 -0.000002 13.757004
						CHANNELS 3 Xrotation Yrotation Zrotation
						JOINT LeftArmRoll
						{
							OFFSET 0.000000 -0.000001 6.944778
							CHANNELS 3 Xrotation Yrotation Zrotation
							JOINT LeftForeArm
							{
								OFFSET 0.000000 -0.000003 20.227692
								CHANNELS 3 Xrotation Yrotation Zrotation
								JOINT LeftForeArmRoll
								{
									OFFSET 0.000000 -0.000001 7.793121
									CHANNELS 3 Xrotation Yrotation Zrotation
									JOINT LeftHand
									{
										OFFSET 0.000000 -0.000002 15.639099
										CHANNELS 3 Xrotation Yrotation Zrotation
										End Site
										{
											OFFSET 0.000000 0.000000 0.100006
										}
									}
								}
							}
						}
					}
				}
			}
		}
	}
	JOINT RightUpLeg
	{
		OFFSET -6.914158 1.063580 -1.267883
		CHANNELS 3 Xrotation Yrotation Zrotation
		JOINT RightUpLegRoll
		{
			OFFSET 0.000000 -0.000003 18.337799
			CHANNELS 3 Xrotation Yrotation Zrotation
			JOINT RightLeg
			{
				OFFSET 0.000000 0.000004 -22.708496
				CHANNELS 3 Xrotation Yrotation Zrotation
				JOINT RightLegRoll
				{
					OFFSET 0.000000 -0.000004 22.782799
					CHANNELS 3 Xrotation Yrotation Zrotation
					JOINT RightFoot
					{
						OFFSET 0.000000 -0.000003 18.962898
						CHANNELS 3 Xrotation Yrotation Zrotation
						JOINT RightToeBase
						{
							OFFSET 0.000000 -0.000003 15.852005
							CHANNELS 3 Xrotation Yrotation Zrotation
							End Site
							{
								OFFSET 0.006718 0.884891 7.677017
							}
						}
					}
				}
			}
		}
	}
	JOINT LeftUpLeg
	{
		OFFSET 6.914158 1.063580 -1.267883
		CHANNELS 3 Xrotation Yrotation Zrotation
		JOINT LeftUpLegRoll
		{
			OFFSET 0.000000 -0.000003 18.337898
			CHANNELS 3 Xrotation Yrotation Zrotation
			JOINT LeftLeg
			{
				OFFSET 0.000000 -0.000004 22.708397
				CHANNELS 3 Xrotation Yrotation Zrotation
				JOINT LeftLegRoll
				{
					OFFSET 0.000000 -0.000004 22.993408
					CHANNELS 3 Xrotation Yrotation Zrotation
					JOINT LeftFoot
					{
						OFFSET 0.000000 -0.000003 18.752197
						CHANNELS 3 Xrotation Yrotation Zrotation
						JOINT LeftToeBase
						{
							OFFSET 0.000000 -0.000003 15.852005
							CHANNELS 3 Xrotation Yrotation Zrotation
							End Site
							{
								OFFSET -0.030113 0.884891 7.677017
							}
						}
					}
				}
			}
		}
	}
}
MOTION
Frames: 9
Frame Time: 0.041667
56.585903 -6.632311 87.374710 -1.222695 1.120306 -1.938921 -1.429078 -0.360193 0.472745 1.147563 -0.727685 0.940216 2.792599 -0.716370 0.948862 9.461537 2.920928 -2.992077 -12.601159 -3.293495 -3.212067 -16.705251 -25.035864 -19.140038 757.584475 -1.260114 811.601436 0.000001 0.000004 -0.000001 48.142489 2.120647 0.483416 -0.000001 0.000007 -3.000000 -5.000342 -7.998722 0.000216 -15.839574 26.305507 17.894679 395.516065 22.164427 -435.786177 -0.000001 0.000002 -0.000004 54.579338 -4.382166 -0.083591 0.000008 -0.000013 3.000000 -5.000203 7.999731 -0.000051 -15.805532 195.676983 0.008838 -179.999991 0.000007 -1.442995 139.383616 7.319236 2.271183 -0.000002 -0.000001 3.252781 80.771488 6.111405 3.599009 27.848409 -7.240415 2.919091 -19.778988 160.960252 0.013581 -0.000004 -0.000006 -1.253070 -46.186849 -2.629692 -0.865537 0.000001 0.000003 -2.834028 80.773291 -6.169782 -3.402637 28.519443 7.159088 -3.895242 
56.549698 -6.641321 87.722397 -1.216459 1.201680 -1.893515 -1.448699 -0.374529 0.454233 1.108296 -0.756236 0.902860 2.753344 -0.745366 0.911852 9.617394 2.670470 -2.977016 -12.694821 -2.994028 -3.174400 -16.684545 -25.358911 -19.117544 757.597425 -1.579933 811.749569 -0.000001 0.000006 -0.000000 48.114919 2.151415 0.469607 -0.000002 0.000007 -3.000001 -5.000340 -7.998722 0.000216 -15.766230 26.414534 17.790573 395.580897 22.636471 -435.718941 -0.000002 0.000001 -0.000006 54.483415 -4.373730 -0.070650 0.000009 -0.000016 3.000000 -5.000203 7.999730 -0.000051 -15.527634 195.655618 0.147838 -179.999991 0.000008 -1.439007 140.222937 7.097016 2.074452 -0.000002 -0.000001 3.008861 79.744514 6.174690 3.402827 28.156430 -7.208828 3.296168 -19.412137 160.809059 -0.137534 -0.000003 -0.000005 -1.254450 -45.211986 -2.467499 -0.722332 -0.000001 0.000003 -2.651819 79.880292 -6.224006 -3.242221 28.703641 7.134583 -4.129923 
56.574299 -6.678411 88.040398 -1.209133 1.279575 -1.846225 -1.468390 -0.387818 0.435788 1.068870 -0.782671 0.865633 2.713927 -0.772246 0.874944 9.767245 2.430281 -2.962968 -12.781231 -2.709476 -3.139061 -16.665294 -25.681371 -19.096990 757.613435 -1.919865 811.883440 -0.000000 0.000002 -0.000002 48.113126 2.175325 0.456761 -0.000003 0.000007 -3.000000 -5.000340 -7.998723 0.000216 -15.692474 26.530082 17.686215 395.643953 23.110239 -435.655912 -0.000001 0.000000 -0.000008 54.393718 -4.365859 -0.057807 0.000009 -0.000017 3.000000 -5.000202 7.999731 -0.000051 -15.250112 195.636671 0.287449 -179.999991 0.000005 -1.435004 141.066383 6.870495 1.879009 0.000000 -0.000001 2.762218 78.713907 6.240943 3.221267 28.454739 -7.174517 3.662249 -19.043850 160.662852 -0.289050 -0.000004 -0.000005 -1.255990 -44.230362 -2.301400 -0.583623 -0.000000 0.000001 -2.471019 78.990571 -6.282889 -3.086602 28.877603 7.110083 -4.351853 
56.570297 -6.662333 88.395798 -1.201385 1.352683 -1.797905 -1.487883 -0.399722 0.417563 1.029852 -0.806320 0.828852 2.674929 -0.796334 0.838450 9.907690 2.201249 -2.949843 -12.858081 -2.441814 -3.106093 -16.647970 -26.002598 -19.078954 757.634308 -2.280643 812.000701 -0.000001 0.000006 -0.000000 48.138053 2.191593 0.444825 -0.000001 0.000007 -2.999999 -5.000343 -7.998721 0.000216 -15.619553 26.652206 17.583586 395.704824 23.584763 -435.596981 0.000002 0.000003 -0.000002 54.310738 -4.358481 -0.044926 0.000009 -0.000012 3.000000 -5.000203 7.999732 -0.000052 -14.972582 195.619241 0.426770 -179.999991 0.000005 -1.430005 141.910608 6.641951 1.690152 -0.000003 -0.000003 2.516660 77.692302 6.309961 3.053520 28.735449 -7.138860 4.007551 -18.674743 160.524622 -0.439587 -0.000006 -0.000005 -1.257590 -43.248106 -2.132473 -0.450574 0.000000 0.000004 -2.293500 78.114551 -6.345623 -2.937509 29.036487 7.086556 -4.554682 
56.575100 -6.696160 88.725502 -1.193887 1.419712 -1.749406 -1.506871 -0.409909 0.399715 0.991832 -0.826515 0.792838 2.636919 -0.816957 0.802681 10.035283 1.984267 -2.937624 -12.923130 -2.193057 -3.075583 -16.633244 -26.321719 -19.064351 757.662066 -2.663007 812.099384 0.000000 0.000005 0.000000 48.190574 2.199432 0.433758 -0.000001 0.000010 -3.000000 -5.000341 -7.998722 0.000216 -15.548681 26.780677 17.484388 395.762990 24.058913 -435.541547 -0.000001 0.000005 -0.000002 54.234875 -4.351519 -0.031896 0.000008 -0.000012 2.999999 -5.000203 7.999729 -0.000052 -14.695318 195.604255 0.564261 -179.999991 0.000006 -1.425005 142.752128 6.413826 1.507974 -0.000002 -0.000000 2.275960 76.692383 6.381358 2.898483 28.990803 -7.103570 4.322385 -18.305783 160.398359 -0.587898 -0.000003 -0.000006 -1.259180 -42.271221 -1.961907 -0.324184 0.000001 0.000004 -2.121089 77.262806 -6.411071 -2.796498 29.175406 7.065074 -4.732070 
56.620605 -6.773362 89.087494 -1.187323 1.479353 -1.701583 -1.525071 -0.418042 0.382400 0.955366 -0.842585 0.757915 2.600455 -0.833446 0.767954 10.146753 1.780234 -2.926361 -12.974171 -1.965189 -3.047637 -16.621667 -26.637886 -19.054066 757.698238 -3.067696 812.176975 -0.000001 0.000005 -0.000001 48.271751 2.198061 0.423548 -0.000001 0.000008 -3.000001 -5.000341 -7.998724 0.000216 -15.481124 26.915667 17.390451 395.818068 24.531616 -435.489392 -0.000001 0.000006 -0.000003 54.166610 -4.344903 -0.018600 0.000008 -0.000013 3.000000 -5.000203 7.999732 -0.000052 -14.418125 195.590813 0.699018 -179.999991 0.000006 -1.420004 143.587802 6.188800 1.336369 -0.000001 0.000002 2.043930 75.726874 6.454687 2.754603 29.213160 -7.070591 4.597062 -17.937945 160.286153 -0.732035 -0.000003 -0.000006 -1.260640 -41.305781 -1.791013 -0.205311 0.000000 0.000002 -1.955630 76.445827 -6.477884 -2.664923 29.289473 7.046801 -4.877695 
56.623501 -6.784699 89.425804 -1.182352 1.530305 -1.655280 -1.542212 -0.423786 0.365775 0.921032 -0.853869 0.724409 2.566130 -0.845130 0.734585 10.238588 1.590026 -2.916086 -13.008952 -1.760195 -3.022372 -16.613824 -26.950330 -19.048742 757.744410 -3.495472 812.231561 -0.000002 0.000006 0.000000 48.382550 2.186696 0.414246 -0.000001 0.000007 -3.000000 -5.000342 -7.998727 0.000216 -15.418104 27.056936 17.303502 395.869650 25.001907 -435.440296 0.000003 0.000002 -0.000004 54.106255 -4.338578 -0.004932 0.000008 -0.000014 3.000001 -5.000203 7.999734 -0.000052 -14.140758 195.576948 0.830343 -179.999991 0.000006 -1.415006 144.414282 5.969653 1.176031 -0.000001 -0.000001 1.824370 74.808521 6.529315 2.620731 29.395003 -7.042077 4.821964 -17.572453 160.190134 -0.869912 -0.000005 -0.000004 -1.261890 -40.357774 -1.621172 -0.094648 0.000002 0.000003 -1.798980 75.674056 -6.544467 -2.544344 29.373963 7.032903 -4.985249 
56.502598 -6.680879 89.751289 -1.179655 1.571268 -1.611349 -1.557994 -0.426809 0.349996 0.889400 -0.859703 0.692645 2.534510 -0.851345 0.702894 10.307379 1.414548 -2.906887 -13.025346 -1.580074 -2.999903 -16.610274 -27.258197 -19.049290 757.802057 -3.947133 812.260631 -0.000002 0.000007 0.000002 48.524136 2.164564 0.405869 -0.000002 0.000007 -3.000001 -5.000342 -7.998725 0.000216 -15.360657 27.204468 17.225435 395.917079 25.468659 -435.393742 0.000001 0.000002 -0.000005 54.054387 -4.332447 0.009246 0.000009 -0.000010 3.000000 -5.000202 7.999732 -0.000050 -13.863293 195.563643 0.956751 -179.999991 0.000007 -1.411003 145.228345 5.759323 1.030444 -0.000003 -0.000001 1.621070 73.949966 6.604572 2.495466 29.528810 -7.020196 4.987487 -17.210137 160.112407 -0.999587 -0.000003 -0.000004 -1.262840 -39.433161 -1.453866 0.007233 0.000001 0.000002 -1.652980 74.958143 -6.608979 -2.435899 29.423881 7.024558 -5.048412 
56.563198 -6.739123 90.129601 -1.179890 1.600931 -1.570632 -1.572123 -0.426776 0.335221 0.861043 -0.859426 0.662951 2.506147 -0.851423 0.673198 10.349811 1.254695 -2.898874 -13.021009 -1.426821 -2.980359 -16.611684 -27.560590 -19.056585 757.872326 -4.423471 812.261997 -0.000001 0.000006 0.000001 48.697179 2.130899 0.398555 -0.000002 0.000007 -3.000000 -5.000341 -7.998723 0.000216 -15.310306 27.358408 17.158171 395.959890 25.930811 -435.349346 0.000001 0.000004 -0.000001 54.011316 -4.326459 0.024053 0.000009 -0.000013 3.000001 -5.000202 7.999734 -0.000051 -13.585549 195.549955 1.077302 -179.999991 0.000006 -1.408994 146.026958 5.560060 0.899324 -0.000004 0.000001 1.437829 73.163976 6.679757 2.376926 29.607081 -7.007066 5.084007 -16.851952 160.056959 -1.119510 -0.000003 -0.000003 -1.263390 -38.537867 -1.290623 0.099944 0.000000 0.000002 -1.519470 74.308565 -6.669533 -2.340555 29.434461 7.022789 -5.060850 
